<?xml version="1.0" encoding="UTF-8" standalone="no"?>
<svg
   xmlns:dc="http://purl.org/dc/elements/1.1/"
   xmlns:cc="http://creativecommons.org/ns#"
   xmlns:rdf="http://www.w3.org/1999/02/22-rdf-syntax-ns#"
   xmlns:svg="http://www.w3.org/2000/svg"
   xmlns="http://www.w3.org/2000/svg"
   viewBox="0 0 520 124"
   height="124"
   width="520"
   xml:space="preserve"
   id="svg2"
   version="1.1"><metadata
     id="metadata8"><rdf:RDF><cc:Work
         rdf:about=""><dc:format>image/svg+xml</dc:format><dc:type
           rdf:resource="http://purl.org/dc/dcmitype/StillImage" /></cc:Work></rdf:RDF></metadata><defs
     id="defs6" /><g
     transform="matrix(1.3333333,0,0,-1.3333333,0,124)"
     id="g10"><g
       transform="scale(0.1)"
       id="g12"><path
         id="path14"
         style="fill:#053378;fill-opacity:1;fill-rule:evenodd;stroke:none"
         d="m 444.02,411.051 c -21.399,9.34 -36.79,21.57 -46.09,36.758 -8.711,14.613 -13.789,28.711 -15.352,42.39 -4.027,-5 -7.617,-10.277 -10.699,-15.82 -1.57,8.98 -2.309,17.812 -2.309,26.519 1.211,27.891 7.11,52.114 17.66,72.582 -9.929,-2.781 -19.378,-6.492 -28.402,-11.14 6.211,14.219 13.363,27.109 21.402,38.601 28.29,37.848 59.149,65.969 92.622,84.258 -16.762,5.27 -33.672,9.141 -50.704,11.641 22.032,13.32 44.223,24.332 66.524,33.039 73.867,26.062 142.578,36.141 206.207,30.242 -63.32,77.578 -140.578,134.18 -231.789,169.879 -40,-21.762 -78.051,-54.449 -114.031,-98.199 -25.11,-32.93 -45.27,-70.59 -60.508,-113.09 -14.879,-42.231 -18.75,-92.93 -11.641,-152.191 3.75,-39.411 20.82,-78.04 51.211,-115.899 15.508,-20.781 39.258,-35.391 71.219,-43.742 0,0.312 0,0.621 0,0.93 12.422,-4.059 27.301,-2.969 44.68,3.242" /><path
         id="path16"
         style="fill:#053378;fill-opacity:1;fill-rule:evenodd;stroke:none"
         d="m 485.43,519.02 c 21.449,-9.29 36.761,-21.559 46.09,-36.75 8.679,-14.571 13.789,-28.68 15.32,-42.348 4.058,4.957 7.609,10.238 10.738,15.816 1.524,-8.976 2.344,-17.847 2.344,-26.519 -1.25,-27.93 -7.152,-52.149 -17.731,-72.617 9.918,2.808 19.411,6.519 28.399,11.168 -6.18,-14.25 -13.32,-27.301 -21.41,-39.098 -28.2,-37.5 -59.102,-65.434 -92.621,-83.75 16.453,-5.274 33.211,-9.184 50.32,-11.641 C 485.121,219.922 463.09,208.91 440.738,200.23 366.91,174.18 298.199,164.059 234.609,169.961 297.578,92.4219 374.84,35.7813 466.371,0.078125 c 40,21.761675 77.848,54.492175 113.551,98.242175 25.43,32.8907 45.629,70.5897 60.469,113.0897 15.23,42.18 19.257,92.93 12.109,152.18 -3.711,39.422 -20.941,78.012 -51.641,115.859 -15.199,20.512 -38.789,34.93 -70.738,43.321 0,0 0,-0.149 0,-0.469 -12.422,4.027 -27.312,2.929 -44.691,-3.281" /><path
         id="path18"
         style="fill:#8cc53d;fill-opacity:1;fill-rule:evenodd;stroke:none"
         d="m 410.98,485.551 c 9.29,21.398 21.559,36.75 36.75,46.051 14.571,8.707 28.68,13.828 42.348,15.347 -4.957,4.031 -10.238,7.582 -15.777,10.711 8.937,1.559 17.808,2.34 26.48,2.34 27.93,-1.25 52.149,-7.109 72.617,-17.699 -2.808,9.929 -6.519,19.418 -11.168,28.398 14.25,-6.211 27.301,-13.359 39.098,-21.437 37.543,-28.211 65.473,-59.063 83.75,-92.582 5.274,16.761 9.184,33.672 11.641,50.699 13.359,-21.988 24.371,-44.219 33.051,-66.52 26.089,-73.871 36.171,-142.578 30.269,-206.168 77.539,63.278 134.18,140.539 169.883,231.758 -21.762,40.031 -54.492,78.039 -98.242,114.02 -32.891,25.121 -70.551,45.312 -113.051,60.511 -42.219,14.918 -92.969,18.75 -152.219,11.641 -39.422,-3.711 -78.012,-20.82 -115.859,-51.211 -20.473,-15.512 -35.082,-39.219 -43.75,-71.18 0.269,0 0.621,0 0.898,0 -4.027,-12.46 -2.929,-27.3 3.281,-44.679" /><path
         id="path20"
         style="fill:#8cc53d;fill-opacity:1;fill-rule:evenodd;stroke:none"
         d="m 518.949,444.141 c -9.34,-21.442 -21.57,-36.801 -36.758,-46.129 -14.613,-8.672 -28.711,-13.793 -42.39,-15.352 5,-4.031 10.277,-7.582 15.859,-10.672 -9.019,-1.558 -17.851,-2.34 -26.558,-2.34 -27.891,1.25 -52.114,7.153 -72.582,17.692 2.781,-9.961 6.492,-19.41 11.14,-28.391 -14.219,6.211 -27.308,13.321 -39.07,21.403 -37.539,28.238 -65.469,59.097 -83.789,92.617 -5.27,-16.449 -9.141,-33.199 -11.641,-50.27 -13.32,21.711 -24.332,43.75 -33.039,66.09 C 174.102,562.621 163.98,631.328 169.879,694.961 92.3008,631.988 35.6992,554.879 0,463.629 21.7617,423.32 54.4492,385.16 98.1992,349.141 131.129,324.02 168.828,304.02 211.328,289.102 253.52,273.91 304.219,269.879 363.48,277.031 c 39.411,3.707 78.04,20.938 115.899,51.641 20.781,15.199 35.391,38.949 43.781,71.25 -0.351,-0.352 -0.621,-0.473 -0.969,-0.473 4.059,12.391 2.969,27.313 -3.242,44.692" /><path
         id="path22"
         style="fill:#06357a;fill-opacity:1;fill-rule:nonzero;stroke:none"
         d="m 1500,373.441 c 0,-7.5 -1.33,-15.589 -3.91,-24.222 -2.5,-8.559 -6.71,-16.52 -12.65,-23.91 -5.86,-7.297 -13.44,-13.43 -22.82,-18.43 -9.37,-4.93 -20.85,-7.348 -34.37,-7.348 h -231.41 c -4.37,0 -8.43,0.778 -12.18,2.348 -3.75,1.562 -7,3.672 -9.69,6.402 -2.74,2.809 -4.85,6.098 -6.41,9.84 -1.56,3.758 -2.34,7.82 -2.34,12.188 V 605 c 0,4.141 0.78,8.121 2.34,11.879 1.56,3.742 3.67,7.031 6.41,9.84 2.69,2.812 5.94,5 9.69,6.562 3.75,1.559 7.81,2.34 12.18,2.34 h 203.91 c 7.5,0 15.51,-1.359 24.06,-4.062 8.64,-2.61 16.64,-6.829 24.07,-12.649 7.5,-5.859 13.67,-13.441 18.59,-22.82 4.88,-9.371 7.34,-20.891 7.34,-34.531 V 550.16 c 0,-10.859 -1.83,-22.461 -5.47,-34.851 -3.55,-12.418 -9.29,-24.18 -17.18,-35.309 6.87,-4.18 13.28,-9.219 19.22,-15.16 6.01,-5.93 11.28,-12.809 15.78,-20.621 4.57,-7.809 8.16,-16.68 10.78,-26.559 2.69,-9.808 4.06,-20.629 4.06,-32.5 z m -60.94,11.719 c 0,7.891 -1.25,15.039 -3.75,21.399 -2.5,6.332 -6.05,11.761 -10.62,16.25 -4.49,4.57 -9.96,8.05 -16.41,10.472 -6.37,2.379 -13.51,3.598 -21.4,3.598 h -137.35 v 61.402 h 109.85 c 8,0 15.19,1.168 21.56,3.598 6.44,2.5 11.91,5.973 16.4,10.461 4.57,4.57 8.05,10 10.47,16.25 2.39,6.332 3.6,13.519 3.6,21.57 v 11.399 c 0,8.75 -4.22,13.132 -12.66,13.132 H 1225.16 V 360.469 h 201.09 c 1.02,0 2.34,0.043 3.91,0.152 1.56,0.199 2.96,0.668 4.22,1.41 1.24,0.821 2.34,2.188 3.28,4.059 0.93,1.879 1.4,4.461 1.4,7.82 z m 441.1,-54.851 c 0,-4.368 -0.78,-8.43 -2.35,-12.188 -1.56,-3.742 -3.75,-7.031 -6.56,-9.84 -2.81,-2.73 -6.09,-4.84 -9.84,-6.402 -3.75,-1.57 -7.74,-2.348 -11.88,-2.348 h -137.34 c -13.05,0 -26.21,1.41 -39.53,4.219 -13.25,2.809 -26.06,7.109 -38.44,12.969 -12.42,5.941 -24.06,13.441 -35,22.5 -10.94,9.062 -20.55,19.761 -28.75,32.191 -8.24,12.379 -14.69,26.602 -19.38,42.649 -4.68,16.019 -7.03,33.91 -7.03,53.601 V 635.621 H 1605 V 467.66 c 0,-17.191 2.38,-31.719 7.19,-43.601 4.76,-11.868 10.82,-21.829 18.12,-29.84 7.39,-7.93 15.47,-14.18 24.22,-18.75 8.75,-4.489 17.03,-7.809 24.85,-10 7.89,-2.188 14.88,-3.59 20.93,-4.219 6.02,-0.551 10,-0.781 11.88,-0.781 h 107.03 v 275.152 h 60.94 z" /><path
         id="path24"
         style="fill:#06357a;fill-opacity:1;fill-rule:nonzero;stroke:none"
         d="m 2274.22,398.441 c 0,-11.992 -1.56,-22.82 -4.69,-32.5 -3.05,-9.613 -7.03,-18.089 -12.03,-25.472 -5,-7.309 -10.9,-13.559 -17.66,-18.75 -6.68,-5.117 -13.59,-9.34 -20.78,-12.66 -7.18,-3.239 -14.49,-5.618 -21.87,-7.18 -7.42,-1.57 -14.38,-2.348 -20.94,-2.348 h -235.16 v 60.938 h 235.16 c 11.64,0 20.7,3.441 27.19,10.312 6.56,6.879 9.84,16.098 9.84,27.66 0,5.618 -0.9,10.778 -2.66,15.469 -1.67,4.68 -4.14,8.75 -7.34,12.18 -3.24,3.441 -7.15,6.101 -11.72,7.969 -4.61,1.882 -9.68,2.82 -15.31,2.82 h -140.16 c -9.92,0 -20.58,1.75 -32.03,5.312 -11.36,3.508 -21.95,9.219 -31.72,17.028 -9.68,7.812 -17.81,18.011 -24.37,30.621 -6.49,12.699 -9.69,28.172 -9.69,46.41 0,18.32 3.2,33.75 9.69,46.25 6.56,12.578 14.69,22.852 24.37,30.781 9.77,7.891 20.36,13.598 31.72,17.028 11.45,3.519 22.11,5.312 32.03,5.312 h 207.35 v -60.93 h -207.35 c -11.56,0 -20.62,-3.562 -27.18,-10.632 -6.49,-6.989 -9.69,-16.25 -9.69,-27.809 0,-11.68 3.2,-20.941 9.69,-27.809 6.56,-6.8 15.62,-10.16 27.18,-10.16 h 140.63 c 6.56,-0.121 13.48,-1.011 20.78,-2.66 7.38,-1.672 14.69,-4.211 21.88,-7.652 7.26,-3.438 14.21,-7.77 20.78,-12.969 6.56,-5.23 12.38,-11.52 17.5,-18.91 5.07,-7.301 9.1,-15.738 12.03,-25.309 3.01,-9.492 4.53,-20.269 4.53,-32.34 z" /><path
         id="path26"
         style="fill:#06357a;fill-opacity:1;fill-rule:nonzero;stroke:none"
         d="m 2751.56,635.621 -56.25,-315 c -1.25,-6.242 -4.06,-11.672 -8.43,-16.242 -4.38,-4.5 -9.69,-7.348 -15.94,-8.598 -6.37,-1.133 -12.42,-0.39 -18.13,2.188 -5.74,2.5 -10.23,6.41 -13.43,11.722 L 2527.81,492.969 2415.94,309.691 c -2.62,-4.613 -6.25,-8.132 -10.94,-10.632 -4.61,-2.5 -9.53,-3.75 -14.84,-3.75 -7.31,0 -13.75,2.351 -19.38,7.031 -5.62,4.691 -9.06,10.781 -10.31,18.281 l -56.72,315 h 61.87 l 40.32,-221.871 96.09,153.281 c 2.58,4.449 6.17,7.969 10.78,10.469 4.69,2.5 9.69,3.75 15,3.75 5.31,0 10.2,-1.25 14.69,-3.75 4.57,-2.5 8.32,-6.02 11.25,-10.469 l 95.63,-153.281 40.31,221.871 z" /><path
         id="path28"
         style="fill:#06357a;fill-opacity:1;fill-rule:nonzero;stroke:none"
         d="m 3129.38,299.531 h -60.94 v 82.5 h -214.22 v -82.5 h -60.94 V 467.66 c 0,24.449 4.22,47.031 12.66,67.649 8.44,20.632 20.15,38.32 35.15,53.132 15,14.879 32.7,26.438 53.13,34.68 20.51,8.328 42.89,12.5 67.19,12.5 h 137.34 c 4.14,0 8.13,-0.781 11.87,-2.34 3.76,-1.562 7.04,-3.75 9.85,-6.562 2.81,-2.809 5,-6.098 6.56,-9.84 1.56,-3.758 2.35,-7.738 2.35,-11.879 z m -275.16,143.438 h 214.22 v 131.722 h -107.03 c -1.88,0 -5.86,-0.281 -11.88,-0.781 -6.05,-0.551 -13.05,-1.879 -20.94,-4.07 -7.81,-2.18 -16.09,-5.578 -24.84,-10.149 -8.75,-4.492 -16.84,-10.742 -24.22,-18.75 -7.3,-7.929 -13.36,-17.89 -18.12,-29.851 -4.81,-11.988 -7.19,-26.481 -7.19,-43.43 z" /><path
         id="path30"
         style="fill:#06357a;fill-opacity:1;fill-rule:nonzero;stroke:none"
         d="m 3522.97,398.441 c 0,-11.992 -1.56,-22.82 -4.69,-32.5 -3.05,-9.613 -7.03,-18.089 -12.03,-25.472 -5,-7.309 -10.9,-13.559 -17.66,-18.75 -6.68,-5.117 -13.59,-9.34 -20.78,-12.66 -7.19,-3.239 -14.49,-5.618 -21.87,-7.18 -7.42,-1.57 -14.38,-2.348 -20.94,-2.348 h -235.16 v 60.938 H 3425 c 11.64,0 20.7,3.441 27.19,10.312 6.56,6.879 9.84,16.098 9.84,27.66 0,5.618 -0.9,10.778 -2.65,15.469 -1.68,4.68 -4.15,8.75 -7.35,12.18 -3.24,3.441 -7.15,6.101 -11.72,7.969 -4.61,1.882 -9.69,2.82 -15.31,2.82 h -140.16 c -9.92,0 -20.58,1.75 -32.03,5.312 -11.36,3.508 -21.95,9.219 -31.72,17.028 -9.68,7.812 -17.81,18.011 -24.37,30.621 -6.49,12.699 -9.69,28.172 -9.69,46.41 0,18.32 3.2,33.75 9.69,46.25 6.56,12.578 14.69,22.852 24.37,30.781 9.77,7.891 20.36,13.598 31.72,17.028 11.45,3.519 22.11,5.312 32.03,5.312 h 207.35 v -60.93 h -207.35 c -11.56,0 -20.62,-3.562 -27.18,-10.632 -6.49,-6.989 -9.69,-16.25 -9.69,-27.809 0,-11.68 3.2,-20.941 9.69,-27.809 6.56,-6.8 15.62,-10.16 27.18,-10.16 h 140.63 c 6.56,-0.121 13.48,-1.011 20.78,-2.66 7.38,-1.672 14.69,-4.211 21.87,-7.652 7.27,-3.438 14.22,-7.77 20.79,-12.969 6.56,-5.23 12.38,-11.52 17.5,-18.91 5.07,-7.301 9.1,-15.738 12.03,-25.309 3.01,-9.492 4.53,-20.269 4.53,-32.34 z" /><path
         id="path32"
         style="fill:#06357a;fill-opacity:1;fill-rule:nonzero;stroke:none"
         d="m 3635.47,498.281 h 213.91 v 137.34 h 60.93 v -336.09 h -60.93 V 436.879 H 3635.47 V 299.531 h -60.94 v 336.09 h 60.94 z" /></g></g></svg>