<?xml version="1.0" encoding="UTF-8" standalone="no"?>
<svg
   xmlns:dc="http://purl.org/dc/elements/1.1/"
   xmlns:cc="http://creativecommons.org/ns#"
   xmlns:rdf="http://www.w3.org/1999/02/22-rdf-syntax-ns#"
   xmlns:svg="http://www.w3.org/2000/svg"
   xmlns="http://www.w3.org/2000/svg"
   viewBox="0 0 124 124"
   height="124"
   width="124"
   xml:space="preserve"
   id="svg2"
   version="1.1"><metadata
     id="metadata8"><rdf:RDF><cc:Work
         rdf:about=""><dc:format>image/svg+xml</dc:format><dc:type
           rdf:resource="http://purl.org/dc/dcmitype/StillImage" /></cc:Work></rdf:RDF></metadata><defs
     id="defs6" /><g
     transform="matrix(1.3333333,0,0,-1.3333333,0,124)"
     id="g10"><g
       transform="scale(0.1)"
       id="g12"><path
         id="path14"
         style="fill:#053378;fill-opacity:1;fill-rule:evenodd;stroke:none"
         d="m 444.02,411.051 c -21.399,9.34 -36.79,21.57 -46.09,36.758 -8.711,14.613 -13.789,28.711 -15.352,42.39 -4.027,-5 -7.617,-10.277 -10.699,-15.82 -1.57,8.98 -2.309,17.812 -2.309,26.519 1.211,27.891 7.11,52.114 17.66,72.582 -9.929,-2.781 -19.378,-6.492 -28.402,-11.14 6.211,14.219 13.363,27.109 21.402,38.601 28.29,37.848 59.149,65.969 92.622,84.258 -16.762,5.27 -33.672,9.141 -50.704,11.641 22.032,13.32 44.223,24.332 66.524,33.039 73.867,26.062 142.578,36.141 206.207,30.242 -63.32,77.578 -140.578,134.18 -231.789,169.879 -40,-21.762 -78.051,-54.449 -114.031,-98.199 -25.11,-32.93 -45.27,-70.59 -60.508,-113.09 -14.879,-42.231 -18.75,-92.93 -11.641,-152.191 3.75,-39.411 20.82,-78.04 51.211,-115.899 15.508,-20.781 39.258,-35.391 71.219,-43.742 0,0.312 0,0.621 0,0.93 12.422,-4.059 27.301,-2.969 44.68,3.242" /><path
         id="path16"
         style="fill:#053378;fill-opacity:1;fill-rule:evenodd;stroke:none"
         d="m 485.43,519.02 c 21.449,-9.29 36.761,-21.559 46.09,-36.75 8.679,-14.571 13.789,-28.68 15.32,-42.348 4.058,4.957 7.609,10.238 10.738,15.816 1.524,-8.976 2.344,-17.847 2.344,-26.519 -1.25,-27.93 -7.152,-52.149 -17.731,-72.617 9.918,2.808 19.411,6.519 28.399,11.168 -6.18,-14.25 -13.32,-27.301 -21.41,-39.098 -28.2,-37.5 -59.102,-65.434 -92.621,-83.75 16.453,-5.274 33.211,-9.184 50.32,-11.641 C 485.121,219.922 463.09,208.91 440.738,200.23 366.91,174.18 298.199,164.059 234.609,169.961 297.578,92.4219 374.84,35.7813 466.371,0.078125 c 40,21.761675 77.848,54.492175 113.551,98.242175 25.43,32.8907 45.629,70.5897 60.469,113.0897 15.23,42.18 19.257,92.93 12.109,152.18 -3.711,39.422 -20.941,78.012 -51.641,115.859 -15.199,20.512 -38.789,34.93 -70.738,43.321 0,0 0,-0.149 0,-0.469 -12.422,4.027 -27.312,2.929 -44.691,-3.281" /><path
         id="path18"
         style="fill:#8cc53d;fill-opacity:1;fill-rule:evenodd;stroke:none"
         d="m 410.98,485.551 c 9.29,21.398 21.559,36.75 36.75,46.051 14.571,8.707 28.68,13.828 42.348,15.347 -4.957,4.031 -10.238,7.582 -15.777,10.711 8.937,1.559 17.808,2.34 26.48,2.34 27.93,-1.25 52.149,-7.109 72.617,-17.699 -2.808,9.929 -6.519,19.418 -11.168,28.398 14.25,-6.211 27.301,-13.359 39.098,-21.437 37.543,-28.211 65.473,-59.063 83.75,-92.582 5.274,16.761 9.184,33.672 11.641,50.699 13.359,-21.988 24.371,-44.219 33.051,-66.52 26.089,-73.871 36.171,-142.578 30.269,-206.168 77.539,63.278 134.18,140.539 169.883,231.758 -21.762,40.031 -54.492,78.039 -98.242,114.02 -32.891,25.121 -70.551,45.312 -113.051,60.511 -42.219,14.918 -92.969,18.75 -152.219,11.641 -39.422,-3.711 -78.012,-20.82 -115.859,-51.211 -20.473,-15.512 -35.082,-39.219 -43.75,-71.18 0.269,0 0.621,0 0.898,0 -4.027,-12.46 -2.929,-27.3 3.281,-44.679" /><path
         id="path20"
         style="fill:#8cc53d;fill-opacity:1;fill-rule:evenodd;stroke:none"
         d="m 518.949,444.141 c -9.34,-21.442 -21.57,-36.801 -36.758,-46.129 -14.613,-8.672 -28.711,-13.793 -42.39,-15.352 5,-4.031 10.277,-7.582 15.859,-10.672 -9.019,-1.558 -17.851,-2.34 -26.558,-2.34 -27.891,1.25 -52.114,7.153 -72.582,17.692 2.781,-9.961 6.492,-19.41 11.14,-28.391 -14.219,6.211 -27.308,13.321 -39.07,21.403 -37.539,28.238 -65.469,59.097 -83.789,92.617 -5.27,-16.449 -9.141,-33.199 -11.641,-50.27 -13.32,21.711 -24.332,43.75 -33.039,66.09 C 174.102,562.621 163.98,631.328 169.879,694.961 92.3008,631.988 35.6992,554.879 0,463.629 21.7617,423.32 54.4492,385.16 98.1992,349.141 131.129,324.02 168.828,304.02 211.328,289.102 253.52,273.91 304.219,269.879 363.48,277.031 c 39.411,3.707 78.04,20.938 115.899,51.641 20.781,15.199 35.391,38.949 43.781,71.25 -0.351,-0.352 -0.621,-0.473 -0.969,-0.473 4.059,12.391 2.969,27.313 -3.242,44.692" /></g></g></svg>